<svg width="23" height="30" viewBox="0 0 23 30" fill="none" xmlns="http://www.w3.org/2000/svg">
<path d="M7.09059 23.2154V24.5427H4.88412V29.9904H3.51375V24.5408H1.36726V23.2135H7.09059V23.2154ZM18.1604 23.1779C19.2852 23.1779 21.1168 23.7872 21.0455 25.5531C20.9781 27.2403 19.4071 27.724 18.2729 27.7615H17.1538V29.9904H15.8265V23.1761H18.1623L18.1604 23.1779ZM11.1286 23.1779C11.5926 23.1513 12.0572 23.2196 12.4939 23.3788C12.9306 23.5381 13.3301 23.7848 13.6681 24.1039C14.0061 24.423 14.2753 24.8077 14.4593 25.2345C14.6433 25.6614 14.7382 26.1213 14.7382 26.5861C14.7382 27.0508 14.6433 27.5107 14.4593 27.9376C14.2753 28.3644 14.0061 28.7491 13.6681 29.0682C13.3301 29.3873 12.9306 29.634 12.4939 29.7933C12.0572 29.9525 11.5926 30.0209 11.1286 29.9942C10.6713 30.0199 10.2135 29.9514 9.7837 29.7931C9.35387 29.6348 8.9611 29.3899 8.62969 29.0737C8.3193 28.7415 8.07899 28.3502 7.9231 27.9231C7.76722 27.4961 7.69894 27.042 7.72235 26.5879C7.69788 26.1324 7.76563 25.6766 7.92154 25.2478C8.07745 24.8191 8.31831 24.4262 8.62969 24.0928C8.9616 23.7775 9.35454 23.5335 9.78431 23.3759C10.2141 23.2182 10.6716 23.1502 11.1286 23.1761V23.1779ZM11.1286 24.5408C10.8519 24.5168 10.5732 24.5498 10.3097 24.6379C10.0463 24.7259 9.80372 24.867 9.59701 25.0526C9.41258 25.2608 9.27216 25.5041 9.18421 25.768C9.09626 26.0318 9.06259 26.3107 9.08523 26.5879C9.06336 26.8642 9.09777 27.1421 9.18639 27.4047C9.275 27.6673 9.41597 27.9092 9.60076 28.1158C9.80622 28.3023 10.048 28.4443 10.3109 28.533C10.5738 28.6217 10.8522 28.6552 11.1286 28.6313C11.4061 28.6534 11.6851 28.6192 11.949 28.5306C12.2129 28.442 12.4561 28.3009 12.664 28.1158C12.849 27.9088 12.9899 27.6661 13.0779 27.4028C13.1659 27.1394 13.1992 26.8609 13.1757 26.5842C13.1993 26.3069 13.166 26.0278 13.078 25.7638C12.99 25.4998 12.8491 25.2565 12.664 25.0488C12.4567 24.8636 12.2137 24.7227 11.95 24.6347C11.6863 24.5467 11.4075 24.5135 11.1305 24.5371L11.1286 24.5408ZM17.1894 24.5408V26.4023H18.1267C19.094 26.4023 19.6677 26.0743 19.6883 25.4988C19.7089 24.9982 19.1428 24.6027 18.3517 24.5502H17.1913L17.1894 24.5408ZM10.3038 0.220865C10.3734 0.150864 10.4563 0.0953168 10.5475 0.0574142C10.6387 0.0195116 10.7365 0 10.8352 0C10.934 0 11.0318 0.0195116 11.123 0.0574142C11.2142 0.0953168 11.297 0.150864 11.3667 0.220865L22.131 10.9851C22.2343 11.0898 22.3045 11.2224 22.333 11.3666C22.3615 11.5108 22.347 11.6603 22.2913 11.7963C22.2355 11.9323 22.1411 12.049 22.0196 12.1317C21.8981 12.2145 21.7549 12.2597 21.6079 12.2618H16.4489C16.25 12.2618 16.0593 12.3408 15.9187 12.4814C15.778 12.622 15.699 12.8128 15.699 13.0117V21.0521C15.699 21.2509 15.62 21.4417 15.4794 21.5823C15.3388 21.7229 15.148 21.8019 14.9492 21.8019H6.88813C6.68925 21.8019 6.49852 21.7229 6.3579 21.5823C6.21727 21.4417 6.13827 21.2509 6.13827 21.0521V13.0135C6.13827 12.8147 6.05927 12.6239 5.91864 12.4833C5.77801 12.3427 5.58728 12.2637 5.3884 12.2637H0.756126C0.6077 12.2649 0.462245 12.2221 0.338184 12.1406C0.214123 12.0591 0.117037 11.9426 0.059222 11.8059C0.00140715 11.6692 -0.0145352 11.5184 0.0134139 11.3726C0.041363 11.2269 0.111946 11.0927 0.216224 10.987L10.3038 0.220865Z" fill="#1296DB"/>
</svg>
